<?xml version="1.0" encoding="UTF-8" standalone="no"?>
<!-- Created with Inkscape (http://www.inkscape.org/) -->

<svg
   xmlns:dc="http://purl.org/dc/elements/1.1/"
   xmlns:cc="http://creativecommons.org/ns#"
   xmlns:rdf="http://www.w3.org/1999/02/22-rdf-syntax-ns#"
   xmlns:svg="http://www.w3.org/2000/svg"
   xmlns="http://www.w3.org/2000/svg"
   xmlns:xlink="http://www.w3.org/1999/xlink"
   xmlns:sodipodi="http://sodipodi.sourceforge.net/DTD/sodipodi-0.dtd"
   xmlns:inkscape="http://www.inkscape.org/namespaces/inkscape"
   width="297mm"
   height="210mm"
   id="svg2985"
   version="1.1"
   inkscape:version="0.48.2 r9819"
   sodipodi:docname="drawing-1.svg">
  <defs
     id="defs2987">
    <linearGradient
       inkscape:collect="always"
       id="linearGradient3799">
      <stop
         style="stop-color:#000000;stop-opacity:1;"
         offset="0"
         id="stop3801" />
      <stop
         style="stop-color:#000000;stop-opacity:0;"
         offset="1"
         id="stop3803" />
    </linearGradient>
    <radialGradient
       inkscape:collect="always"
       xlink:href="#linearGradient3799"
       id="radialGradient3807"
       cx="464.01859"
       cy="355.48602"
       fx="464.01859"
       fy="355.48602"
       r="144.00403"
       gradientTransform="matrix(1,0,0,1.1891353,0,-67.234953)"
       gradientUnits="userSpaceOnUse" />
    <linearGradient
       inkscape:collect="always"
       xlink:href="#linearGradient3799"
       id="linearGradient3815"
       x1="254.67995"
       y1="301.3176"
       x2="553.78284"
       y2="301.3176"
       gradientUnits="userSpaceOnUse" />
  </defs>
  <sodipodi:namedview
     inkscape:document-units="mm"
     pagecolor="#ffffff"
     bordercolor="#666666"
     borderopacity="1.0"
     inkscape:pageopacity="0.0"
     inkscape:pageshadow="2"
     inkscape:zoom="0.43415836"
     inkscape:cx="183.66017"
     inkscape:cy="380"
     inkscape:current-layer="layer6"
     id="namedview2989"
     showgrid="false"
     inkscape:window-width="1600"
     inkscape:window-height="876"
     inkscape:window-x="0"
     inkscape:window-y="24"
     inkscape:window-maximized="1" />
  <metadata
     id="metadata2991">
    <rdf:RDF>
      <cc:Work
         rdf:about="">
        <dc:format>image/svg+xml</dc:format>
        <dc:type
           rdf:resource="http://purl.org/dc/dcmitype/StillImage" />
        <dc:title></dc:title>
      </cc:Work>
    </rdf:RDF>
  </metadata>
  <g
     inkscape:label="slide 1"
     inkscape:groupmode="layer"
     id="layer1"
     style="display:inline">
    <path
       style="color:#000000;fill:none;stroke:#000000;stroke-width:1px;stroke-linecap:butt;stroke-linejoin:miter;stroke-miterlimit:4;stroke-opacity:1;stroke-dasharray:none;stroke-dashoffset:0;marker:none;visibility:visible;display:inline;overflow:visible;enable-background:accumulate"
       d="m 294.8233,320.28599 c 54.78033,-10.30228 103.91245,-39.78524 154.32157,-62.18929 2.24237,-0.99661 38.26971,-18.78267 39.15622,-16.12315 3.82649,11.47949 0,31.75421 0,43.76283 0,80.31654 -23.03307,149.69405 -23.03307,225.72409"
       id="path2997"
       inkscape:connector-curvature="0" />
    <path
       style="color:#000000;fill:none;stroke:#000000;stroke-width:1px;stroke-linecap:butt;stroke-linejoin:miter;stroke-miterlimit:4;stroke-opacity:1;stroke-dasharray:none;stroke-dashoffset:0;marker:none;visibility:visible;display:inline;overflow:visible;enable-background:accumulate"
       d="m 363.92251,536.79685 c 70.52666,-15.77404 144.41607,-9.21323 216.51086,-9.21323"
       id="path2999"
       inkscape:connector-curvature="0" />
  </g>
  <g
     inkscape:groupmode="layer"
     id="layer2"
     inkscape:label="slide 2"
     style="display:inline">
    <path
       style="color:#000000;fill:none;stroke:#000000;stroke-width:1px;stroke-linecap:butt;stroke-linejoin:miter;stroke-miterlimit:4;stroke-opacity:1;stroke-dasharray:none;stroke-dashoffset:0;marker:none;visibility:visible;display:inline;overflow:visible;enable-background:accumulate"
       d="m 327.0696,290.343 c 1.78563,-68.3998 181.88554,-93.001 211.90424,-52.97606 20.14311,26.85748 -8.41981,106.93308 -23.03307,131.2885 -8.27158,13.78596 -19.38644,29.15411 -32.2463,39.15622 -5.93118,4.61314 -116.02972,69.09921 -119.77196,69.09921 -5.96907,0 -29.00484,17.0613 -23.03307,23.03307 10.63757,10.63757 36.79102,12.55786 50.67275,13.81984 21.5837,1.96215 42.69667,2.30331 64.4926,2.30331 25.33638,0 50.67276,0 76.00913,0"
       id="path3001"
       inkscape:connector-curvature="0" />
  </g>
  <g
     inkscape:groupmode="layer"
     id="layer3"
     inkscape:label="slide 3"
     style="display:inline">
    <path
       style="color:#000000;fill:none;stroke:url(#radialGradient3807);stroke-width:4.89685039000000000;stroke-linecap:butt;stroke-linejoin:miter;stroke-miterlimit:4;stroke-opacity:1;stroke-dasharray:none;stroke-dashoffset:0;marker:none;visibility:visible;display:inline;overflow:visible;enable-background:accumulate"
       d="m 322.46298,265.00662 c 40.40288,-75.77179 95.59038,-78.31244 177.35464,-78.31244 21.61414,0 56.21354,1.54624 73.70583,16.12315 13.69955,11.41629 34.20673,75.71466 27.63968,92.13228 -5.85441,14.63604 -22.08091,20.71263 -34.5496,27.63969 -17.08319,9.49065 -38.58027,19.90711 -57.58268,25.33637 -6.21902,1.77687 -12.41253,3.10314 -18.42645,4.60662 -1.48969,0.37242 -6.14216,0 -4.60662,0 21.6012,0 40.96934,11.27144 59.88598,20.72976 59.18044,29.59022 83.64666,75.28154 29.943,128.98519 -42.51412,42.51412 -116.38959,11.67069 -165.83811,4.60662 -7.50906,-1.07272 -16.38925,-0.1774 -23.03307,-4.60662 C 374.67825,494.06236 367.07026,457.87 361.6192,446.96788"
       id="path3003"
       inkscape:connector-curvature="0" />
    <g
       inkscape:groupmode="layer"
       id="layer6"
       inkscape:label="colors">
      <rect
         style="fill:#729fcf;stroke:none"
         id="rect3818"
         width="257.9704"
         height="177.35464"
         x="458.35809"
         y="377.86865" />
    </g>
  </g>
  <g
     inkscape:groupmode="layer"
     id="layer4"
     inkscape:label="slide 4"
     style="display:inline">
    <g
       inkscape:groupmode="layer"
       id="layer5"
       inkscape:label="colors2">
      <path
         style="color:#000000;fill:#ef2929;stroke:url(#linearGradient3815);stroke-width:1px;stroke-linecap:butt;stroke-linejoin:miter;stroke-miterlimit:4;stroke-opacity:1;stroke-dasharray:none;stroke-dashoffset:0;marker:none;visibility:visible;display:inline;overflow:visible;enable-background:accumulate"
         d="m 472.17794,193.6041 c 0.77732,13.04076 -10.30377,22.49908 -18.42646,32.2463 -22.10892,26.53071 -45.84986,55.11716 -73.70582,76.00913 -33.67233,25.25425 -100.81554,58.82605 -119.77197,96.7389 -1.53553,3.07107 -8.04018,9.21323 -4.60661,9.21323 28.7134,0 63.2624,-13.81985 96.73889,-13.81985 54.55025,0 110.76791,1.0469 163.5348,16.12315 3.29716,0.94205 33.71107,7.74846 34.54961,6.90993 7.40809,-7.4081 0,-61.33043 0,-71.40252 0,-56.75716 18.9804,-137.24601 -46.06614,-158.92819 -13.59396,-4.53132 -20.84436,5.64304 -32.2463,6.90992 -16.05601,1.784 -3.20739,-7.60953 -23.03307,2.30331"
         id="path3029"
         inkscape:connector-curvature="0" />
    </g>
    <path
       style="color:#000000;fill:none;stroke:#000000;stroke-width:8.08582677;stroke-linecap:butt;stroke-linejoin:miter;stroke-miterlimit:4;stroke-opacity:1;stroke-dasharray:none;stroke-dashoffset:0;marker:none;visibility:visible;display:inline;overflow:visible;enable-background:accumulate"
       d="m 462.96471,182.08757 c -26.02875,62.16562 -84.9207,106.9769 -124.37858,161.23149 -3.03035,4.16673 -40.21843,52.62199 -32.2463,55.27937 24.77675,8.25891 109.00422,0 138.19843,0 19.60537,0 42.76163,-3.23794 62.18929,0 29.20318,4.8672 57.62316,11.51653 87.52566,11.51653"
       id="path3005"
       inkscape:connector-curvature="0" />
    <path
       style="color:#000000;fill:none;stroke:#000000;stroke-width:8.08582677;stroke-linecap:butt;stroke-linejoin:miter;stroke-miterlimit:4;stroke-opacity:1;stroke-dasharray:none;stroke-dashoffset:0;marker:none;visibility:visible;display:inline;overflow:visible;enable-background:accumulate"
       d="m 573.52345,329.49922 c 0.6453,12.68467 2.30331,23.87248 2.30331,36.85291 0,36.30874 -5.02415,75.37594 -13.81985,110.55874 -1.72272,6.8909 -4.60661,42.78537 -4.60661,34.5496"
       id="path3007"
       inkscape:connector-curvature="0" />
  </g>
<script type="text/ecmascript" xmlns:xlink="http://www.w3.org/1999/xlink" 
  xlink:href="slide-animation.js"></script>
</svg>
